<svg xmlns="http://www.w3.org/2000/svg" xmlns:xlink="http://www.w3.org/1999/xlink" version="1.1" id="Logo_H" x="0px" y="0px" viewBox="75 75 385 120" style="enable-background:new 0 0 540 262;" xml:space="preserve">
<style type="text/css">
	.st0{fill-rule:evenodd;clip-rule:evenodd;fill:#209ACE;}
	.st1{fill:#209ACE;}
</style>
<g>
	<path class="st0" d="M117.3,108.2v-0.3c0-2.1,1.7-3.9,3.9-3.9c2.1,0,3.9,1.7,3.9,3.9c0,2.1-1.7,3.9-3.9,3.9c-0.4,0-0.7-0.1-1.1-0.2   l-23.9,18v7.7l2.7-4.9l3.9,2.1l-10.5,19.1l-3.9-2.1l3.4-6.2v-18L117.3,108.2z M129.8,176.3H82.9v-4.4H89l11.2-20.3l10.2-1.8   l16.5-16.5l-0.3-0.3h-0.2c-2.1,0-3.9-1.7-3.9-3.9c0-2.1,1.7-3.9,3.9-3.9c2.1,0,3.9,1.7,3.9,3.9c0,0.4-0.1,0.8-0.2,1.1l14.6,18.3   H157v4.4h-5.8l-7.8,7.8l-1.6-1.6l6.2-6.2h-3.1l-7.8,7.8l-1.6-1.6l6.6-6.6l-1.4-1.7l-9.9,9.9l-1.6-1.6l10.1-10.1l-1.4-1.8   l-19.4,19.4h-0.1l2.8,5.2h8.5v4.5L129.8,176.3L129.8,176.3z M96.6,171.9l7.8-14.2l9.1-1.6l17.5-17.5l-1.4-1.8L112.4,154l-9.5,1.6   l-9,16.3L96.6,171.9L96.6,171.9z M113.6,171.9l-5.6-10.3l7.6-1.2l18.3-18.3l-1.4-1.8l-17.9,17.9l-8.7,1.5l-6.7,12.2L113.6,171.9   L113.6,171.9z M118.7,171.9L115,165l2.5-0.3l19.1-19.1l-1.4-1.7l-18.6,18.6l-5.2,0.8l4.7,8.6L118.7,171.9L118.7,171.9z    M171.2,113.3l2.8-3.5l-11.8-9.5l-14.4,9.5c-0.5-0.2-1-0.3-1.5-0.3c-2.2,0-4,1.8-4,4s1.8,4,4,4s3.9-1.7,3.9-3.9l11.7-7.7   L171.2,113.3z M132.9,110.6l29.9-20.3c0.6,0.3,1.2,0.5,1.9,0.5c0.6,0,1.1-0.1,1.6-0.3l31.8,25.9H186v4.4h15.3l-9.3,27.8h-10.6v4.4   h13.8l7.8-23.3h10.9v-4.4h-9.4l1.5-4.4h12.4v-4.4h-13.2L169.1,87c0-0.2,0.1-0.5,0.1-0.7c0-2.5-2-4.4-4.4-4.4c-2.5,0-4.4,2-4.4,4.4   v0.3l-29.9,20.3L132.9,110.6z M177.6,147l-19.1,19.1c0.1,0.3,0.1,0.6,0.1,0.9c0,2.2-1.7,3.9-3.9,3.9s-3.9-1.7-3.9-3.9   s1.7-3.9,3.9-3.9h0.1l11.3-11.3l-4.9-5.6c-0.3,0.1-0.6,0.1-0.9,0.1c-2.5,0-4.4-2-4.4-4.4c0-2.5,2-4.4,4.4-4.4c2.5,0,4.4,2,4.4,4.4   c0,0.5-0.1,0.9-0.2,1.4l0.6,0.6l7.1-7.1l-3.4-3.4l3.1-3.1l10.9,10.9l-3.1,3.1l-2.8-2.8l-7.3,7.3l1.5,1.7l5.1-5.1L177.6,147z    M168,147.2l7.2-7.2l-1.6-1.6l-7.1,7.2L168,147.2z M177.4,153.5l-1.6-1.6L163,164.7l1.6,1.6L177.4,153.5z M166.2,167.8l1.6,1.6   l10-10l-1.6-1.6L166.2,167.8z M182.8,171.9h-11.2l6-6l-1.6-1.6l-7.6,7.6h-3.8v4.4h18.1v-4.4H182.8z M87.3,125.2l11.9-9l-2.7-3.6   L82.9,123v11.1h4.4V125.2z"/>
	<g>
		<g>
			<path class="st1" d="M245.7,179c-1.1-0.6-1.9-1.4-2.5-2.4s-0.9-2.2-0.9-3.5s0.3-2.5,0.9-3.5c0.6-1,1.5-1.9,2.6-2.4     c1.1-0.6,2.3-0.9,3.6-0.9c1.1,0,2.1,0.2,3,0.6c0.9,0.4,1.7,0.9,2.3,1.7l-1.6,1.5c-1-1-2.1-1.6-3.6-1.6c-0.9,0-1.7,0.2-2.5,0.6     c-0.7,0.4-1.3,1-1.7,1.7s-0.6,1.5-0.6,2.4s0.2,1.7,0.6,2.4c0.4,0.7,1,1.3,1.7,1.7s1.5,0.6,2.5,0.6c1.4,0,2.6-0.5,3.6-1.6l1.6,1.5     c-0.6,0.7-1.4,1.3-2.3,1.7s-1.9,0.6-3,0.6C248,179.9,246.8,179.6,245.7,179z"/>
			<path class="st1" d="M266.5,169.5l-4.8,11c-0.4,1.1-1,1.9-1.6,2.3c-0.6,0.4-1.4,0.7-2.3,0.7c-0.5,0-1-0.1-1.5-0.2     c-0.5-0.2-0.9-0.4-1.2-0.7l1-1.7c0.2,0.2,0.5,0.4,0.8,0.5s0.6,0.2,0.9,0.2c0.4,0,0.8-0.1,1-0.3c0.3-0.2,0.5-0.6,0.8-1.1l0.2-0.4     l-4.4-10.2h2.5l3.2,7.5l3.2-7.5h2.2V169.5z"/>
			<path class="st1" d="M276.3,170.1c0.8,0.4,1.4,1,1.8,1.8s0.7,1.7,0.7,2.7s-0.2,1.9-0.7,2.7c-0.4,0.8-1.1,1.4-1.8,1.8     c-0.8,0.4-1.7,0.6-2.7,0.6c-0.7,0-1.3-0.1-1.9-0.4c-0.6-0.2-1.1-0.6-1.5-1.1v1.3h-2.3v-14.1h2.4v5.2c0.4-0.4,0.9-0.8,1.4-1     s1.2-0.3,1.8-0.3C274.7,169.4,275.6,169.6,276.3,170.1z M275.6,176.9c0.6-0.6,0.8-1.3,0.8-2.3c0-0.9-0.3-1.7-0.8-2.3     c-0.6-0.6-1.3-0.9-2.2-0.9c-0.6,0-1.1,0.1-1.5,0.4c-0.5,0.3-0.8,0.6-1.1,1.1c-0.3,0.5-0.4,1-0.4,1.7c0,0.6,0.1,1.2,0.4,1.7     s0.6,0.9,1.1,1.1c0.5,0.3,1,0.4,1.5,0.4C274.3,177.8,275,177.5,275.6,176.9z"/>
			<path class="st1" d="M290.8,175.4h-8c0.1,0.7,0.5,1.3,1.1,1.8c0.6,0.4,1.3,0.7,2.2,0.7c1.1,0,2-0.4,2.8-1.1l1.3,1.5     c-0.5,0.5-1,1-1.7,1.2c-0.7,0.3-1.5,0.4-2.4,0.4c-1.1,0-2.1-0.2-2.9-0.7c-0.8-0.4-1.5-1.1-2-1.9c-0.5-0.8-0.7-1.7-0.7-2.7     s0.2-1.9,0.7-2.7c0.4-0.8,1.1-1.4,1.9-1.9c0.8-0.4,1.7-0.7,2.7-0.7s1.9,0.2,2.7,0.7c0.8,0.4,1.4,1.1,1.8,1.8     c0.4,0.8,0.7,1.7,0.7,2.7C290.9,174.8,290.8,175.1,290.8,175.4z M283.8,172c-0.5,0.4-0.8,1-1,1.8h5.8c-0.1-0.7-0.4-1.3-0.9-1.8     s-1.2-0.7-1.9-0.7C285,171.3,284.3,171.6,283.8,172z"/>
			<path class="st1" d="M299,169.4v2.3c-0.2,0-0.4-0.1-0.6-0.1c-0.9,0-1.6,0.3-2.2,0.8s-0.8,1.3-0.8,2.3v4.9H293v-10.1h2.3v1.5     C296.1,170,297.3,169.4,299,169.4z"/>
			<path class="st1" d="M302.1,179.5c-0.8-0.2-1.4-0.5-1.9-0.8l0.9-1.8c0.5,0.3,1,0.5,1.6,0.7s1.3,0.3,1.9,0.3     c1.4,0,2.1-0.4,2.1-1.1c0-0.4-0.2-0.6-0.5-0.7c-0.4-0.1-0.9-0.3-1.7-0.4c-0.8-0.1-1.5-0.3-2-0.4c-0.5-0.2-1-0.5-1.4-0.9     s-0.6-1-0.6-1.7c0-1,0.4-1.7,1.2-2.3c0.8-0.6,1.9-0.9,3.3-0.9c0.7,0,1.4,0.1,2.1,0.2c0.7,0.2,1.3,0.4,1.7,0.6l-0.9,1.8     c-0.9-0.5-1.8-0.8-2.9-0.8c-0.7,0-1.2,0.1-1.6,0.3s-0.5,0.5-0.5,0.8c0,0.4,0.2,0.6,0.6,0.8s1,0.3,1.8,0.4c0.8,0.1,1.5,0.3,2,0.4     c0.5,0.2,1,0.4,1.3,0.8c0.4,0.4,0.6,1,0.6,1.7c0,1-0.4,1.7-1.2,2.3c-0.8,0.6-1.9,0.9-3.4,0.9     C303.7,179.8,302.9,179.7,302.1,179.5z"/>
			<path class="st1" d="M320.9,175.4h-8c0.1,0.7,0.5,1.3,1.1,1.8c0.6,0.4,1.3,0.7,2.2,0.7c1.1,0,2-0.4,2.8-1.1l1.3,1.5     c-0.5,0.5-1,1-1.7,1.2c-0.7,0.3-1.5,0.4-2.4,0.4c-1.1,0-2.1-0.2-2.9-0.7c-0.8-0.4-1.5-1.1-2-1.9c-0.5-0.8-0.7-1.7-0.7-2.7     s0.2-1.9,0.7-2.7c0.4-0.8,1.1-1.4,1.9-1.9c0.8-0.4,1.7-0.7,2.7-0.7s1.9,0.2,2.7,0.7c0.8,0.4,1.4,1.1,1.8,1.8     c0.4,0.8,0.7,1.7,0.7,2.7C320.9,174.8,320.9,175.1,320.9,175.4z M313.8,172c-0.5,0.4-0.8,1-1,1.8h5.8c-0.1-0.7-0.4-1.3-0.9-1.8     s-1.2-0.7-1.9-0.7C315,171.3,314.4,171.6,313.8,172z"/>
			<path class="st1" d="M325.2,179.2c-0.8-0.4-1.5-1.1-2-1.9c-0.5-0.8-0.7-1.7-0.7-2.7s0.2-1.9,0.7-2.7s1.1-1.4,1.9-1.8     c0.8-0.4,1.8-0.7,2.8-0.7s1.9,0.2,2.6,0.6c0.8,0.4,1.3,1,1.7,1.7l-1.8,1.1c-0.3-0.5-0.7-0.8-1.1-1.1c-0.4-0.2-0.9-0.4-1.4-0.4     c-0.9,0-1.6,0.3-2.2,0.9c-0.6,0.6-0.9,1.3-0.9,2.3s0.3,1.7,0.9,2.3s1.3,0.9,2.2,0.9c0.5,0,1-0.1,1.4-0.4c0.4-0.2,0.8-0.6,1.1-1.1     l1.8,1.1c-0.4,0.8-1,1.3-1.7,1.8c-0.8,0.4-1.6,0.6-2.6,0.6C326.9,179.8,326,179.6,325.2,179.2z"/>
			<path class="st1" d="M344.2,169.5v10.1h-2.3v-1.3c-0.4,0.5-0.9,0.8-1.4,1.1c-0.6,0.2-1.2,0.4-1.8,0.4c-1.4,0-2.4-0.4-3.2-1.1     c-0.8-0.8-1.2-1.9-1.2-3.4v-5.8h2.4v5.5c0,0.9,0.2,1.6,0.6,2s1,0.7,1.8,0.7s1.5-0.3,2-0.8s0.8-1.3,0.8-2.3v-5.1L344.2,169.5     L344.2,169.5z"/>
			<path class="st1" d="M353.1,169.4v2.3c-0.2,0-0.4-0.1-0.6-0.1c-0.9,0-1.6,0.3-2.2,0.8c-0.5,0.5-0.8,1.3-0.8,2.3v4.9h-2.4v-10.1     h2.3v1.5C350.2,170,351.4,169.4,353.1,169.4z"/>
			<path class="st1" d="M355.2,167.5c-0.3-0.3-0.4-0.6-0.4-1s0.1-0.7,0.4-1s0.7-0.4,1.1-0.4s0.8,0.1,1.1,0.4c0.3,0.3,0.4,0.6,0.4,1     s-0.1,0.8-0.4,1.1s-0.6,0.4-1.1,0.4C355.8,167.9,355.5,167.7,355.2,167.5z M355.1,169.5h2.4v10.1h-2.4V169.5z"/>
			<path class="st1" d="M366.7,179.1c-0.3,0.2-0.6,0.4-1,0.5s-0.8,0.2-1.3,0.2c-1.1,0-2-0.3-2.6-0.9c-0.6-0.6-0.9-1.4-0.9-2.5v-4.9     h-1.7v-1.9h1.7v-2.3h2.4v2.3h2.7v1.9h-2.7v4.8c0,0.5,0.1,0.9,0.4,1.1c0.2,0.3,0.6,0.4,1,0.4c0.5,0,1-0.1,1.3-0.4L366.7,179.1z"/>
			<path class="st1" d="M378.5,169.5l-4.8,11c-0.4,1.1-1,1.9-1.6,2.3c-0.6,0.4-1.4,0.7-2.3,0.7c-0.5,0-1-0.1-1.5-0.2     c-0.5-0.2-0.9-0.4-1.2-0.7l0.9-1.7c0.2,0.2,0.5,0.4,0.8,0.5s0.6,0.2,0.9,0.2c0.4,0,0.8-0.1,1-0.3c0.3-0.2,0.5-0.6,0.8-1.1     l0.2-0.4l-4.4-10.2h2.5l3.2,7.5l3.2-7.5h2.3V169.5z"/>
		</g>
		<g>
			<path class="st0" d="M269.1,136.8c-0.9-1.3-2.2-2.3-3.8-3.2c1.1-0.8,1.9-1.8,2.6-2.9c0.8-1.4,1.2-3.1,1.2-4.9     c0-3.1-1.2-5.4-3.5-7.1c-2.2-1.6-5.3-2.4-9.1-2.4l0,0h-13.2V153h2.9l0,0h10.2l0,0h1.4c3.6,0,6.7-0.9,9.2-2.6     c2.5-1.8,3.8-4.6,3.8-8.4C270.8,140,270.2,138.3,269.1,136.8z M251.3,124.1h6.3c1.8,0,3.4,1.6,3.4,3.4c0,1.9-1.5,3.4-3.4,3.4     h-6.3V124.1z M259.4,145.2h-8.1v-6.7h8.1c1.8,0,3.2,1.6,3.2,3.4C262.6,143.7,261.2,145.2,259.4,145.2z"/>
			<polygon class="st0" points="276.4,152.5 276.4,153 276.9,153 283.9,153 284.4,153 284.4,152.5 284.4,116.3 276.4,116.3    "/>
			<polygon class="st0" points="457.1,124.2 457.1,116.3 430.8,116.3 430.8,153 457.1,153 457.1,145.3 438.8,145.3 438.8,138.6     454.1,138.6 454.1,130.9 438.8,130.9 438.8,124.2    "/>
			<polygon class="st0" points="338.9,116.3 308.5,116.3 308.5,124.2 327.5,124.2 308.5,145.3 308.5,153 338.9,153 338.9,145.3     319.9,145.3 338.9,124.2    "/>
			<polygon class="st0" points="414.8,116.3 414.8,139.4 397.4,116.3 389.7,116.3 389.7,153 397.7,153 397.7,130.2 415.1,153     422.8,153 422.8,116.3    "/>
			<path class="st1" d="M362.6,114.3c-11.1,0-20,9-20,20s9,20,20,20c11.1,0,20-9,20-20S373.7,114.3,362.6,114.3z M362.6,146.6     c-6.6,0-12-5.5-12-12.3s5.4-12.3,12-12.3s12,5.5,12,12.3C374.7,141.1,369.3,146.6,362.6,146.6z"/>
			<rect x="292.7" y="145.2" class="st0" width="7.7" height="7.7"/>
		</g>
	</g>
</g>
</svg>